<svg xmlns="http://www.w3.org/2000/svg" viewBox="0 0 256 256" width="256" height="256"><defs>
  <linearGradient id="bg_dr" x1="0" y1="0" x2="0" y2="1"><stop offset="0" stop-color="#1A1C20"/><stop offset="1" stop-color="#090A0C"/></linearGradient>
  <radialGradient id="top_dr" cx="50%" cy="14%" r="72%"><stop offset="0" stop-color="#FFFFFF" stop-opacity="0.1"/><stop offset="1" stop-color="#FFFFFF" stop-opacity="0"/></radialGradient>
  <radialGradient id="vig_dr" cx="50%" cy="46%" r="62%"><stop offset="0.6" stop-color="#000" stop-opacity="0"/><stop offset="1" stop-color="#000" stop-opacity="0.42"/></radialGradient>
  <linearGradient id="chev_dr" x1="42" y1="0" x2="86" y2="0" gradientUnits="userSpaceOnUse"><stop offset="0" stop-color="#C4CEDC"/><stop offset="1" stop-color="#FFFFFF"/></linearGradient>
  <linearGradient id="pill_dr" x1="116" y1="0" x2="228" y2="0" gradientUnits="userSpaceOnUse">
    <stop offset="0.00" stop-color="#FFFFFF" stop-opacity="1"/><stop offset="0.12" stop-color="#FFFFFF" stop-opacity="1"/>
    <stop offset="0.34" stop-color="#FFFFFF" stop-opacity="0.82"/><stop offset="0.58" stop-color="#FFFFFF" stop-opacity="0.5"/>
    <stop offset="0.78" stop-color="#FFFFFF" stop-opacity="0.22"/><stop offset="1.00" stop-color="#FFFFFF" stop-opacity="0"/></linearGradient>
  <filter id="soft_dr" x="-70%" y="-70%" width="240%" height="240%"><feGaussianBlur stdDeviation="4.5"/></filter>
  <filter id="grain_dr"><feTurbulence type="fractalNoise" baseFrequency="0.9" numOctaves="2" stitchTiles="stitch" result="n"/><feColorMatrix in="n" type="saturate" values="0"/><feComponentTransfer><feFuncA type="table" tableValues="0 0.06"/></feComponentTransfer></filter>
  <clipPath id="clip_dr"><path d="M 164.372 0 c 32.073 0 48.109 0 60.359 6.242 a 57.267 57.267 0 0 1 25.027 25.027 c 6.242 12.250 6.242 28.286 6.242 60.359 L 256.000 164.372 c 0 32.073 0 48.109 -6.242 60.359 a 57.267 57.267 0 0 1 -25.027 25.027 c -12.250 6.242 -28.286 6.242 -60.359 6.242 L 91.628 256.000 c -32.073 0 -48.109 0 -60.359 -6.242 a 57.267 57.267 0 0 1 -25.027 -25.027 c -6.242 -12.250 -6.242 -28.286 -6.242 -60.359 L 0 91.628 c 0 -32.073 0 -48.109 6.242 -60.359 a 57.267 57.267 0 0 1 25.027 -25.027 c 12.250 -6.242 28.286 -6.242 60.359 -6.242 Z"/></clipPath>
  <linearGradient id="shV_dr" x1="0" y1="110.5" x2="0" y2="139.5" gradientUnits="userSpaceOnUse"><stop offset="0" stop-color="#fff" stop-opacity="0.5"/><stop offset="0.5" stop-color="#fff" stop-opacity="0"/></linearGradient>
  <linearGradient id="shH_dr" x1="116" y1="0" x2="228" y2="0" gradientUnits="userSpaceOnUse"><stop offset="0" stop-color="#fff"/><stop offset="0.4" stop-color="#000"/></linearGradient>
  <mask id="shM_dr"><rect x="116" y="110.5" width="112" height="29" rx="14.5" fill="url(#shH_dr)"/></mask><radialGradient id="glow_dr" cx="50%" cy="50%" r="50%"><stop offset="0" stop-color="#FFFFFF" stop-opacity="0.42"/><stop offset="1" stop-color="#FFFFFF" stop-opacity="0"/></radialGradient><linearGradient id="rim_dr" x1="0" y1="0" x2="0" y2="1"><stop offset="0" stop-color="#FFFFFF" stop-opacity="0.14"/><stop offset="0.4" stop-color="#FFFFFF" stop-opacity="0"/></linearGradient></defs><path d="M 164.372 0 c 32.073 0 48.109 0 60.359 6.242 a 57.267 57.267 0 0 1 25.027 25.027 c 6.242 12.250 6.242 28.286 6.242 60.359 L 256.000 164.372 c 0 32.073 0 48.109 -6.242 60.359 a 57.267 57.267 0 0 1 -25.027 25.027 c -12.250 6.242 -28.286 6.242 -60.359 6.242 L 91.628 256.000 c -32.073 0 -48.109 0 -60.359 -6.242 a 57.267 57.267 0 0 1 -25.027 -25.027 c -6.242 -12.250 -6.242 -28.286 -6.242 -60.359 L 0 91.628 c 0 -32.073 0 -48.109 6.242 -60.359 a 57.267 57.267 0 0 1 25.027 -25.027 c 12.250 -6.242 28.286 -6.242 60.359 -6.242 Z" fill="url(#bg_dr)"/><g clip-path="url(#clip_dr)"><path d="M 164.372 0 c 32.073 0 48.109 0 60.359 6.242 a 57.267 57.267 0 0 1 25.027 25.027 c 6.242 12.250 6.242 28.286 6.242 60.359 L 256.000 164.372 c 0 32.073 0 48.109 -6.242 60.359 a 57.267 57.267 0 0 1 -25.027 25.027 c -12.250 6.242 -28.286 6.242 -60.359 6.242 L 91.628 256.000 c -32.073 0 -48.109 0 -60.359 -6.242 a 57.267 57.267 0 0 1 -25.027 -25.027 c -6.242 -12.250 -6.242 -28.286 -6.242 -60.359 L 0 91.628 c 0 -32.073 0 -48.109 6.242 -60.359 a 57.267 57.267 0 0 1 25.027 -25.027 c 12.250 -6.242 28.286 -6.242 60.359 -6.242 Z" fill="url(#top_dr)"/><path d="M 164.372 0 c 32.073 0 48.109 0 60.359 6.242 a 57.267 57.267 0 0 1 25.027 25.027 c 6.242 12.250 6.242 28.286 6.242 60.359 L 256.000 164.372 c 0 32.073 0 48.109 -6.242 60.359 a 57.267 57.267 0 0 1 -25.027 25.027 c -12.250 6.242 -28.286 6.242 -60.359 6.242 L 91.628 256.000 c -32.073 0 -48.109 0 -60.359 -6.242 a 57.267 57.267 0 0 1 -25.027 -25.027 c -6.242 -12.250 -6.242 -28.286 -6.242 -60.359 L 0 91.628 c 0 -32.073 0 -48.109 6.242 -60.359 a 57.267 57.267 0 0 1 25.027 -25.027 c 12.250 -6.242 28.286 -6.242 60.359 -6.242 Z" fill="url(#vig_dr)"/><ellipse cx="80" cy="125" rx="11" ry="13" fill="url(#glow_dr)" filter="url(#soft_dr)"/><ellipse cx="126" cy="125" rx="22" ry="15" fill="url(#glow_dr)" filter="url(#soft_dr)"/><path d="M42,80 L80,125 L42,170" fill="none" stroke="url(#chev_dr)" stroke-width="23" stroke-linecap="round" stroke-linejoin="round"/><rect x="116" y="110.5" width="112" height="29" rx="14.5" fill="url(#pill_dr)"/><rect x="116" y="110.5" width="112" height="29" rx="14.5" fill="url(#shV_dr)" mask="url(#shM_dr)"/><path d="M0 0 L256 0 L256 256 L0 256 Z" filter="url(#grain_dr)" opacity="0.5"/></g><path d="M 164.372 0 c 32.073 0 48.109 0 60.359 6.242 a 57.267 57.267 0 0 1 25.027 25.027 c 6.242 12.250 6.242 28.286 6.242 60.359 L 256.000 164.372 c 0 32.073 0 48.109 -6.242 60.359 a 57.267 57.267 0 0 1 -25.027 25.027 c -12.250 6.242 -28.286 6.242 -60.359 6.242 L 91.628 256.000 c -32.073 0 -48.109 0 -60.359 -6.242 a 57.267 57.267 0 0 1 -25.027 -25.027 c -6.242 -12.250 -6.242 -28.286 -6.242 -60.359 L 0 91.628 c 0 -32.073 0 -48.109 6.242 -60.359 a 57.267 57.267 0 0 1 25.027 -25.027 c 12.250 -6.242 28.286 -6.242 60.359 -6.242 Z" fill="none" stroke="url(#rim_dr)" stroke-width="1.5"/></svg>